<svg width="8000" height="300" viewBox="0 0 8000 300" fill="none" xmlns="http://www.w3.org/2000/svg">
<g clip-path="url(#clip0_5_16)">
<rect width="8000" height="300" fill="#1F101D"/>
<path d="M400 147H0V248H8000V53C8000 53 7297 88 7200 93C7103 98 7084 96 7000 97C6916 98 4904 94 4800 93C4696 92 4589 87 4500 87C4411 87 4143.5 98.5 4100 99C4056.5 99.5 3948.5 103 3900 113C3851.5 123 3599 197 3550 197H3350C3309 197 3225 119 3200 113C3175 107 3127 104.5 3100 105C3073 105.5 2700 109 2700 109C2700 109 2091 113 2000 115C1909 117 905 149 800 149C695 149 400 147 400 147Z" fill="#251122"/>
<path d="M400 199H0V300H8000V105C8000 105 7297 140 7200 145C7103 150 7084 148 7000 149C6916 150 4904 146 4800 145C4696 144 4589 139 4500 139C4411 139 4143.5 150.5 4100 151C4056.5 151.5 3948.5 155 3900 165C3851.5 175 3599 249 3550 249H3350C3309 249 3225 171 3200 165C3175 159 3127 156.5 3100 157C3073 157.5 2700 161 2700 161C2700 161 2091 165 2000 167C1909 169 905 201 800 201C695 201 400 199 400 199Z" fill="#1F101D"/>
<path d="M0 199H400C400 199 695 201 800 201C905 201 1909 169 2000 167C2091 165 2700 161 2700 161C2700 161 3073 157.5 3100 157C3127 156.5 3175 159 3200 165C3225 171 3309 249 3350 249C3391 249 3501 249 3550 249C3599 249 3851.5 175 3900 165C3948.5 155 4056.5 151.5 4100 151C4143.5 150.5 4411 139 4500 139C4589 139 4696 144 4800 145C4904 146 6916 150 7000 149C7084 148 7103 150 7200 145C7297 140 8000 105 8000 105" stroke="#391535"/>
</g>
<defs>
<clipPath id="clip0_5_16">
<rect width="8000" height="300" fill="white"/>
</clipPath>
</defs>
</svg>
