<svg id="Layer_1" data-name="Layer 1" xmlns="http://www.w3.org/2000/svg" viewBox="0 0 1594.36 384.23"><defs><style>.cls-1,.cls-2{fill:#fff;}.cls-1{opacity:0.65;}</style></defs><path class="cls-1" d="M266.35,563.73V529.38c0-8-1.89-24.93-22-24.93,0,0-22.19,0-22.19,22.19v37.3c0,14.34,3.3,29.7,22.18,29.7h33.38c36,0,47.61,28.09,47.61,47.6v34.33c0,39.65-32.32,49.87-58.75,49.87H222.16c-24.83,0-59-8.29-59-49.82v-24h59v36.9a21.93,21.93,0,0,0,22.19,22.16c.12.13,22.17.92,22.17-22.16,0-.35-.17-42.51-.17-42.51.11-.89.12-24.93-22-24.93H222.16c-22.15,0-59-7.47-59-47.6V537.75c0-34,23.37-48,59-48h44.42c39.54,0,58.75,23.64,58.75,48v26Z" transform="translate(-163.18 -414.98)"/><path class="cls-1" d="M507.57,490.2V725.87H330.66V712.58s14.63-11.1,14.63-37V537.76a47.28,47.28,0,0,0-14.63-34.31V490.2H404.3s0,198.66,0,199.14a22.19,22.19,0,0,0,44.38,0c0-.48-.05-199.14-.05-199.14Z" transform="translate(-163.18 -414.98)"/><path class="cls-1" d="M630.87,489.73H527.41V748.88c0,17.13-6.13,28.29-14.39,36.24h-.16v14.09h73.55V725.4H630.8c39,0,58.72-21.64,58.72-49.82,0,0,.24-102.83.24-143.27C689.76,516,678.82,489.73,630.87,489.73ZM608.6,711.17s-22.31-.56-22.31-22.29c0-.77.12-158.78.12-158.78,0-14.64,7.7-26.07,22.19-26.07,0,0,22.2-1.56,22.2,26.09,0,0,.09,158.08.09,158.76C630.89,692.27,629,710.37,608.6,711.17Z" transform="translate(-163.18 -414.98)"/><path class="cls-1" d="M1073.9,489.73H991.66A21.23,21.23,0,0,0,970.41,511V748.88c0,17.13-6.13,28.29-14.38,36.24h-.16V799.2h73.54V725.4h44.49c37,0,58.63-15.91,58.63-49.82,0,0,.23-141.7.23-143.27C1132.76,504.18,1110.72,489.73,1073.9,489.73Zm-22.3,221.44s-22.3-.56-22.3-22.3c0-.76.11-158.77.11-158.77-.11-17,7.72-26.07,22.19-26.07,0,0,22.22-1.56,22.22,26.09,0,0,.08,158.08.08,158.75C1073.9,692.27,1072,710.37,1051.6,711.17Z" transform="translate(-163.18 -414.98)"/><path class="cls-1" d="M871.43,563.71v-26c0-21.68-14.91-48-58.92-48H768.89c-46.93,0-59,25.62-59,47.57V675.63c0,25-15.06,35.44-15.06,35.44v14.34H813c44.76,0,58.41-24.4,58.41-49.83v-24H812.89v37.27c0,13.73-11.61,22.17-23.12,22.17-10.48-.44-21.25-9.47-21.25-22.17,0-1.37.37-125.17.37-125.17ZM768.89,530.14c0-14.92,7-26.15,21-26.15,12.89,0,22.67,7.84,22.67,26.15v18.2H768.89Z" transform="translate(-163.18 -414.98)"/><path class="cls-1" d="M1029.05,470.76l-58.47.11c-6.06,0-17.42,4.46-19.78,18.87v0a23.5,23.5,0,0,0-.23,3.16V725.44H876.72V711.1s14.93-10.11,14.93-35.47V537.32c0-20.77-14.94-32.87-14.94-32.87V489.76h57.82V462.58c0-17.57,12.73-47.6,47.61-47.6a47.6,47.6,0,0,1,47.4,43.35C1029.68,459.73,1029.27,469.47,1029.05,470.76Z" transform="translate(-163.18 -414.98)"/><path class="cls-1" d="M1314,537.69c0-27.63-14.88-47.94-58.71-47.94H1211.4c-16.92,0-59.19,4.75-59.19,47.85v138c0,40.18,28.83,49.86,59,49.86h44.22c34.89,0,59-14.94,59-50.06ZM1255.47,685c0,17.59-10.9,25-22,25.44,0,0-22.2,1.65-22.2-25.44V526.2c0-15.42,12.14-22,22.2-22,10.92,0,22,8,22,22Z" transform="translate(-163.18 -414.98)"/><path class="cls-1" d="M1496.18,537.76V675.51c0,35-24.54,49.9-47.35,49.9h-11.28V526.64c0-13.79-10.76-22.17-22-22.17-13.31,0-22.19,10.33-22.19,22.16V725.41h-73.65V711.07s14.67-8.44,14.67-35.44v-138c0-22.29-14.67-33.2-14.67-33.2V489.74h117.64C1472.73,489.74,1496.18,507,1496.18,537.76Z" transform="translate(-163.18 -414.98)"/><path class="cls-1" d="M1678.28,537.76V675.62c0,34.67-24.41,49.79-47.36,49.79h-11.26V526.64c0-13.79-10.76-22.17-22-22.17-13.29,0-22.18,10.33-22.18,22.16V725.41h-73.64V711.07s14.66-8.44,14.66-35.44V537.73a46.15,46.15,0,0,0-14.66-33.31V489.74h117.63C1654.84,489.74,1678.28,507.4,1678.28,537.76Z" transform="translate(-163.18 -414.98)"/><path class="cls-1" d="M1756.82,489.76V725.44h-72.9V711.1c7.11-6.8,14.1-13.49,14.1-35.47,0-2.77-.19-135.08-.18-137.88a45.12,45.12,0,0,0-13.92-33.3V489.76Z" transform="translate(-163.18 -414.98)"/><path class="cls-2" d="M325.33,537.71v26h-59V529.38c0-8-1.89-24.93-22-24.93,0,0-22.19,0-22.19,22.19v37.3c0,14.34,3.3,29.7,22.18,29.7h33.38c36,0,47.61,28.09,47.61,47.6v34.33c0,39.65-32.32,49.87-58.75,49.87H222.16c-24.83,0-59-8.29-59-49.82v-24h59v36.9a21.93,21.93,0,0,0,22.19,22.16c.12.13,22.17.92,22.17-22.16,0-.35-.17-42.51-.17-42.51.11-.89.12-24.93-22-24.93H222.16c-22.15,0-59-7.47-59-47.6V537.75c0-34,23.37-48,59-48h44.42C306.12,489.76,325.33,513.4,325.33,537.71Z" transform="translate(-163.18 -414.98)"/><path class="cls-2" d="M448.59,490.2h59V725.87H330.66V712.58s14.63-11.1,14.63-37V537.76a47.28,47.28,0,0,0-14.63-34.31V490.2H404.3s0,198.66,0,199.14a22.19,22.19,0,0,0,44.38,0C448.64,688.86,448.59,490.2,448.59,490.2Z" transform="translate(-163.18 -414.98)"/><path class="cls-2" d="M630.87,489.73H527.41V748.88c0,17.13-6.13,28.29-14.39,36.24h-.16v14.09h73.55V725.4H630.8c39,0,58.72-21.64,58.72-49.82,0,0,.24-102.83.24-143.27C689.76,516,678.82,489.73,630.87,489.73ZM608.6,711.17s-22.31-.56-22.31-22.29c0-.77.12-158.78.12-158.78,0-14.64,7.7-26.07,22.19-26.07,0,0,22.2-1.56,22.2,26.09,0,0,.09,158.08.09,158.76C630.89,692.27,629,710.37,608.6,711.17Z" transform="translate(-163.18 -414.98)"/><path class="cls-2" d="M871.43,563.71v-26c0-21.68-14.91-48-58.92-48H768.89c-46.93,0-59,25.62-59,47.57V675.63c0,25-15.06,35.44-15.06,35.44v14.34H813c44.76,0,58.41-24.4,58.41-49.83v-24H812.89v37.27c0,13.73-11.61,22.17-23.12,22.17-10.48-.44-21.25-9.47-21.25-22.17,0-1.37.37-125.17.37-125.17ZM768.89,530.14c0-14.92,7-26.15,21-26.15,12.89,0,22.67,7.84,22.67,26.15v18.2H768.89Z" transform="translate(-163.18 -414.98)"/><path class="cls-2" d="M950.8,489.74v0a23.5,23.5,0,0,0-.23,3.16V725.44H876.72V711.1s14.93-10.11,14.93-35.47V537.32c0-20.77-14.94-32.87-14.94-32.87V489.76h57.82V462.58c0-17.57,12.73-47.6,47.61-47.6a47.6,47.6,0,0,1,47.4,43.35c.13,1.4-.28,11.14-.5,12.43l-58.47.11C964.52,470.87,953.16,475.33,950.8,489.74Z" transform="translate(-163.18 -414.98)"/><path class="cls-2" d="M1073.9,489.73H991.66A21.23,21.23,0,0,0,970.41,511V748.88c0,17.13-6.13,28.29-14.38,36.24h-.16V799.2h73.54V725.4h44.49c37,0,58.63-15.91,58.63-49.82,0,0,.23-141.7.23-143.27C1132.76,504.18,1110.72,489.73,1073.9,489.73Zm-22.3,221.44s-22.3-.56-22.3-22.3c0-.76.11-158.77.11-158.77-.11-17,7.72-26.07,22.19-26.07,0,0,22.22-1.56,22.22,26.09,0,0,.08,158.08.08,158.75C1073.9,692.27,1072,710.37,1051.6,711.17Z" transform="translate(-163.18 -414.98)"/><path class="cls-2" d="M1314,537.69c0-27.63-14.88-47.94-58.71-47.94H1211.4c-16.92,0-59.19,4.75-59.19,47.85v138c0,40.18,28.83,49.86,59,49.86h44.22c34.89,0,59-14.94,59-50.06ZM1255.47,685c0,17.59-10.9,25-22,25.44,0,0-22.2,1.65-22.2-25.44V526.2c0-15.42,12.14-22,22.2-22,10.92,0,22,8,22,22Z" transform="translate(-163.18 -414.98)"/><path class="cls-2" d="M1496.18,537.76V675.51c0,35-24.54,49.9-47.35,49.9h-11.28V526.64c0-13.79-10.76-22.17-22-22.17-13.31,0-22.19,10.33-22.19,22.16V725.41h-73.65V711.07s14.67-8.44,14.67-35.44v-138c0-22.29-14.67-33.2-14.67-33.2V489.74h117.64C1472.73,489.74,1496.18,507,1496.18,537.76Z" transform="translate(-163.18 -414.98)"/><path class="cls-2" d="M1678.28,537.76V675.62c0,34.67-24.41,49.79-47.36,49.79h-11.26V526.64c0-13.79-10.76-22.17-22-22.17-13.29,0-22.18,10.33-22.18,22.16V725.41h-73.64V711.07s14.66-8.44,14.66-35.44V537.73a46.15,46.15,0,0,0-14.66-33.31V489.74h117.63C1654.84,489.74,1678.28,507.4,1678.28,537.76Z" transform="translate(-163.18 -414.98)"/><path class="cls-2" d="M1756.82,489.76V725.44h-72.9V711.1c7.11-6.8,14.1-13.49,14.1-35.47,0-2.77-.19-135.08-.18-137.88a45.12,45.12,0,0,0-13.92-33.3V489.76Z" transform="translate(-163.18 -414.98)"/><rect class="cls-2" x="1520.01" y="53.14" width="74.35" height="14.16"/></svg>